PathFileType	4	(X/Y/Z)	/Users/itak/Documents/Research/Walk-IL/dataset/trc/00504_00183.trc
DataRate	CameraRate	NumFrames	NumMarkers	Units	OrigDataRate	OrigDataStartFrame	OrigNumFrames
100.000000	100.000000	4	53	mm	100.000000	0	719
Frame#	Time	RPSI			LPSI			L3			STRN			T10			C7			CLAV			RBAK			LBAK			LSHO			LUPA			LAEL			LAOL			LWTS			LWPS			LFRA			LIFD			LHPS			LHTS			RSHO			RUPA			RAEL			RAOL			RWTS			RWPS			RFRA			RIFD			RHTS			RHPS			RBHD			LFHD			RFHD			LBHD			LHIP			RHIP			RASI			LASI			LKNE			LTHI			LANK			LTIP			LTOE			LMT1			LMT5			LHEE			RKNE			RTHI			RANK			RTIP			RTOE			RMT1			RMT5			RHEE			
		X1	Y1	Z1	X2	Y2	Z2	X3	Y3	Z3	X4	Y4	Z4	X5	Y5	Z5	X6	Y6	Z6	X7	Y7	Z7	X8	Y8	Z8	X9	Y9	Z9	X10	Y10	Z10	X11	Y11	Z11	X12	Y12	Z12	X13	Y13	Z13	X14	Y14	Z14	X15	Y15	Z15	X16	Y16	Z16	X17	Y17	Z17	X18	Y18	Z18	X19	Y19	Z19	X20	Y20	Z20	X21	Y21	Z21	X22	Y22	Z22	X23	Y23	Z23	X24	Y24	Z24	X25	Y25	Z25	X26	Y26	Z26	X27	Y27	Z27	X28	Y28	Z28	X29	Y29	Z29	X30	Y30	Z30	X31	Y31	Z31	X32	Y32	Z32	X33	Y33	Z33	X34	Y34	Z34	X35	Y35	Z35	X36	Y36	Z36	X37	Y37	Z37	X38	Y38	Z38	X39	Y39	Z39	X40	Y40	Z40	X41	Y41	Z41	X42	Y42	Z42	X43	Y43	Z43	X44	Y44	Z44	X45	Y45	Z45	X46	Y46	Z46	X47	Y47	Z47	X48	Y48	Z48	X49	Y49	Z49	X50	Y50	Z50	X51	Y51	Z51	X52	Y52	Z52	X53	Y53	Z53	

1	0	-1200.856567382812	975.75341796875	-390.100830078125	-1141.603149414062	973.0686645507812	-498.3960571289062	-1185.214721679688	1030.099731445312	-451.890380859375	-985.9840087890625	1211.311157226562	-370.0506286621094	-1206.77783203125	1136.310302734375	-456.7352600097656	-1175.91845703125	1368.888671875	-443.3226013183594	-1024.879150390625	1303.894775390625	-386.8181762695312	-1242.993896484375	1244.696411132812	-376.6931457519531	-1164.233032226562	1312.8701171875	-531.5272216796875	-1052.5576171875	1364.38720703125	-568.6427612304688	-1036.2373046875	1237.454833984375	-626.8983764648438	-1012.090698242188	1028.208251953125	-642.9491577148438	-1103.21533203125	1017.236572265625	-604.8209228515625	-933.605712890625	845.8855590820312	-576.0172119140625	-995.7463989257812	806.1578979492188	-635.5112915039062	-992.6686401367188	945.299560546875	-636.8065185546875	-900.57763671875	707.6948852539062	-566.400634765625	-971.0020141601562	751.9515991210938	-620.69677734375	-916.5133666992188	767.357177734375	-587.3576049804688	-1176.418701171875	1368.057983398438	-284.3742980957031	-1208.24365234375	1299.765747070312	-234.4465179443359	-1193.879028320312	1031.542724609375	-188.2214508056641	-1232.112670898438	1012.403198242188	-239.0735778808594	-1071.755737304688	837.5325927734375	-191.7436828613281	-1155.637451171875	809.0411376953125	-168.3448944091797	-1186.795043945312	977.714111328125	-180.1268463134766	-1058.878173828125	678.4790649414062	-190.7411041259766	-1075.361572265625	748.7759399414062	-138.8433532714844	-1128.70556640625	737.4164428710938	-161.2851104736328	-1181.260864257812	1531.9306640625	-363.1528015136719	-1004.215515136719	1596.2421875	-433.6266784667969	-1064.30126953125	1592.567260742188	-320.9382019042969	-1119.167724609375	1532.396362304688	-510.3927917480469	-988.0593872070312	898.5061645507812	-565.9807739257812	-1166.477905273438	876.1072998046875	-233.8573455810547	-1044.15380859375	919.7495727539062	-244.1054077148438	-937.0125732421875	932.2064208984375	-461.7637329101562	-997.733154296875	475.9125061035156	-537.1356201171875	-977.2322998046875	633.978515625	-548.1712646484375	-1084.58349609375	51.06426620483398	-571.7132568359375	-1025.195922851562	326.4103088378906	-555.504150390625	-926.9369506835938	40.83160400390625	-440.0821838378906	-1011.564819335938	43.21509170532227	-440.7666931152344	-980.7588500976562	46.70862197875977	-536.5291137695312	-1152.703735351562	45.87138366699219	-533.8685913085938	-1154.461669921875	488.182373046875	-255.7483825683594	-1146.803466796875	748.30419921875	-217.8204956054688	-1185.474487304688	45.96697998046875	-300.2989501953125	-1147.917114257812	343.779296875	-268.9718627929688	-980.4961547851562	49.51419067382812	-289.1764831542969	-1036.350708007812	56.34472274780273	-339.9474182128906	-1079.176513671875	43.10532379150391	-253.1295013427734	-1220.493530273438	38.79697799682617	-362.6052856445312	
2	0.01	-1200.920532226562	975.7999877929688	-389.934814453125	-1141.662841796875	973.0869140625	-498.2869873046875	-1185.439697265625	1030.1083984375	-451.7312316894531	-986.0072631835938	1211.330078125	-370.0883178710938	-1206.949096679688	1136.321044921875	-456.506591796875	-1176.02197265625	1368.895263671875	-443.1846618652344	-1024.886352539062	1303.917358398438	-386.8018188476562	-1243.025390625	1244.703247070312	-376.506103515625	-1164.391235351562	1312.865234375	-531.420166015625	-1052.7275390625	1364.420288085938	-568.6278076171875	-1036.47998046875	1237.509399414062	-626.9029541015625	-1012.364074707031	1028.206665039062	-642.9703369140625	-1103.527709960938	1017.308288574219	-604.741943359375	-933.8585815429688	845.8411865234375	-576.3026123046875	-996.1494140625	806.0408935546875	-635.4432373046875	-993.11474609375	945.2758178710938	-636.910888671875	-904.7977294921875	704.9779663085938	-565.0394897460938	-971.467529296875	751.90576171875	-620.5870361328125	-916.9375610351562	767.3084106445312	-587.6436157226562	-1176.371704101562	1368.056518554688	-284.2771301269531	-1208.16064453125	1299.779418945312	-234.2886199951172	-1193.74072265625	1031.529907226562	-188.0927276611328	-1232.025756835938	1012.39208984375	-238.91796875	-1071.596557617188	837.52294921875	-191.7387237548828	-1155.475708007812	809.0089721679688	-168.2757568359375	-1186.634765625	977.703857421875	-180.011474609375	-1058.731689453125	678.489990234375	-190.7428588867188	-1071.581909179688	747.9309692382812	-144.2271575927734	-1128.520629882812	737.3969116210938	-161.2593688964844	-1181.273193359375	1531.967041015625	-363.0230102539062	-1004.248046875	1596.245727539062	-433.6443176269531	-1064.206665039062	1592.59228515625	-320.8666076660156	-1119.249267578125	1532.406372070312	-510.3283081054688	-988.2110595703125	898.5333862304688	-566.0264892578125	-1166.395751953125	876.1105346679688	-233.7768707275391	-1044.087524414062	919.7225952148438	-244.1271820068359	-937.1207275390625	932.234375	-461.8433837890625	-997.8075561523438	475.9051513671875	-537.1782836914062	-977.2918090820312	634.0176391601562	-548.2174072265625	-1084.590698242188	51.06439590454102	-571.71923828125	-1025.277465820312	326.40966796875	-555.519287109375	-926.946044921875	40.84760665893555	-440.0897521972656	-1011.563781738281	43.22142791748047	-440.7630004882812	-980.743408203125	46.71594619750977	-536.5584106445312	-1152.702270507812	45.87642669677734	-533.8713989257812	-1154.40673828125	488.18310546875	-255.677734375	-1146.71337890625	748.2899780273438	-217.7692413330078	-1185.502685546875	45.93090438842773	-300.289306640625	-1147.859130859375	343.768798828125	-268.9142150878906	-980.5177612304688	49.61026763916016	-289.156494140625	-1036.3837890625	56.41237640380859	-339.8972778320312	-1079.229858398438	43.11786270141602	-253.0844116210938	-1220.5791015625	38.74361419677734	-362.5780639648438	
3	0.02	-1201.00439453125	975.8555297851562	-389.7263488769531	-1141.747680664062	973.107177734375	-498.1445007324219	-1185.695190429688	1030.108520507812	-451.5448303222656	-986.0392456054688	1211.352783203125	-370.1349792480469	-1207.160766601562	1136.33251953125	-456.2328796386719	-1176.145629882812	1368.9013671875	-443.0052490234375	-1024.894287109375	1303.944946289062	-386.7826538085938	-1243.071899414062	1244.711059570312	-376.2658386230469	-1164.601928710938	1312.863525390625	-531.2705688476562	-1052.941162109375	1364.468139648438	-568.6143188476562	-1036.7900390625	1237.574584960938	-626.9118041992188	-1012.712768554688	1028.204833984375	-642.9853515625	-1103.908569335938	1017.405517578125	-604.6415405273438	-934.1720581054688	845.7868041992188	-576.6348266601562	-996.6464233398438	805.8961181640625	-635.372314453125	-993.638671875	945.2539672851562	-637.0248413085938	-909.9177856445312	701.6748657226562	-563.4224853515625	-972.0208740234375	751.8567504882812	-620.4819946289062	-917.4310913085938	767.2515869140625	-587.9732666015625	-1176.316528320312	1368.054565429688	-284.1470336914062	-1208.055419921875	1299.788940429688	-234.0995941162109	-1193.565673828125	1031.51220703125	-187.9337310791016	-1231.910400390625	1012.378479003906	-238.7222137451172	-1071.40234375	837.5101318359375	-191.7341003417969	-1155.265502929688	808.9713745117188	-168.1890258789062	-1186.433227539062	977.6911010742188	-179.8667907714844	-1058.543579101562	678.4948120117188	-190.7650299072266	-1067.475708007812	747.0173950195312	-150.031005859375	-1128.285888671875	737.3729248046875	-161.2240905761719	-1181.280883789062	1532.015502929688	-362.8633422851562	-1004.289733886719	1596.248168945312	-433.6679992675781	-1064.0869140625	1592.619873046875	-320.7847595214844	-1119.372680664062	1532.427978515625	-510.234619140625	-988.4356079101562	898.5587768554688	-566.09765625	-1166.287475585938	876.1123657226562	-233.6750335693359	-1044.003295898438	919.6919555664062	-244.1588439941406	-937.2632446289062	932.265625	-461.9473876953125	-997.90869140625	475.8956604003906	-537.2396240234375	-977.3832397460938	634.0614624023438	-548.2893676757812	-1084.599243164062	51.06468200683594	-571.7260131835938	-1025.389526367188	326.410400390625	-555.54345703125	-926.9591064453125	40.8668212890625	-440.1010437011719	-1011.561645507812	43.22875213623047	-440.7587890625	-980.7291870117188	46.72820281982422	-536.5869750976562	-1152.70166015625	45.88376617431641	-533.8779907226562	-1154.333129882812	488.1831665039062	-255.5880889892578	-1146.606201171875	748.2735595703125	-217.7005310058594	-1185.530639648438	45.89011383056641	-300.2726440429688	-1147.787719726562	343.7545776367188	-268.8393859863281	-980.5480346679688	49.72792053222656	-289.1373596191406	-1036.42626953125	56.49394226074219	-339.8430786132812	-1079.2861328125	43.13090896606445	-253.0369415283203	-1220.672485351562	38.69134140014648	-362.546875	
4	0.03	-1201.106079101562	975.91455078125	-389.48583984375	-1141.858032226562	973.126220703125	-497.9735717773438	-1185.95849609375	1030.097045898438	-451.3455505371094	-986.0796508789062	1211.377685546875	-370.1881408691406	-1207.400024414062	1136.34375	-455.9353637695312	-1176.281860351562	1368.906005859375	-442.7896118164062	-1024.902587890625	1303.97607421875	-386.7620849609375	-1243.133666992188	1244.719848632812	-375.9807434082031	-1164.859130859375	1312.867309570312	-531.0804443359375	-1053.189575195312	1364.5302734375	-568.603759765625	-1037.157592773438	1237.6455078125	-626.9251708984375	-1013.122192382812	1028.203735351562	-642.9887084960938	-1104.33740234375	1017.524658203125	-604.5242919921875	-934.5323486328125	845.7269897460938	-576.9871826171875	-997.209228515625	805.73388671875	-635.3096923828125	-994.2007446289062	945.2398071289062	-637.1368408203125	-915.3862915039062	698.148193359375	-561.7410278320312	-972.627197265625	751.81103515625	-620.4016723632812	-917.957275390625	767.1929931640625	-588.3157958984375	-1176.256713867188	1368.052001953125	-283.9854125976562	-1207.932250976562	1299.790649414062	-233.8902282714844	-1193.360717773438	1031.489868164062	-187.7521362304688	-1231.768798828125	1012.362915039062	-238.4947662353516	-1071.183471679688	837.4949340820312	-191.7310485839844	-1155.012329101562	808.9315185546875	-168.08837890625	-1186.198608398438	977.6763305664062	-179.6989440917969	-1058.318237304688	678.4895629882812	-190.8165130615234	-1063.611572265625	746.164794921875	-155.423095703125	-1128.010986328125	737.3453369140625	-161.1798706054688	-1181.280029296875	1532.075439453125	-362.6810607910156	-1004.339050292969	1596.248046875	-433.6973266601562	-1063.94677734375	1592.646606445312	-320.7000122070312	-1119.541381835938	1532.463012695312	-510.1104431152344	-988.740234375	898.5781860351562	-566.198974609375	-1166.156127929688	876.1115112304688	-233.5550384521484	-1043.903930664062	919.660400390625	-244.2017669677734	-937.4376831054688	932.2970581054688	-462.0742492675781	-998.036376953125	475.8847961425781	-537.321044921875	-977.5105590820312	634.1055297851562	-548.390625	-1084.608520507812	51.06515121459961	-571.7330932617188	-1025.529174804688	326.4126892089844	-555.5775146484375	-926.9750366210938	40.88857269287109	-440.1155395507812	-1011.558532714844	43.23677825927734	-440.75439453125	-980.7183837890625	46.74514770507812	-536.6112060546875	-1152.701904296875	45.89305877685547	-533.8884887695312	-1154.241821289062	488.1824645996094	-255.4833374023438	-1146.485595703125	748.2564086914062	-217.6162261962891	-1185.5546875	45.84841537475586	-300.2481384277344	-1147.706298828125	343.7370910644531	-268.7506713867188	-980.5859375	49.86049270629883	-289.1217956542969	-1036.4765625	56.58465194702148	-339.7903747558594	-1079.338745117188	43.14296722412109	-252.9932556152344	-1220.764526367188	38.64494323730469	-362.5127258300781	
